<?xml version="1.0" encoding="utf-8"?>
<!-- Generator: Adobe Illustrator 28.0.0, SVG Export Plug-In . SVG Version: 6.00 Build 0)  -->
<svg version="1.1" id="Слой_1" xmlns="http://www.w3.org/2000/svg" xmlns:xlink="http://www.w3.org/1999/xlink" x="0px" y="0px"
	 viewBox="0 0 1000 658.9" style="enable-background:new 0 0 1000 658.9;" xml:space="preserve">
<style type="text/css">
	.st0{fill:#1D1D1B;}
	.st1{fill:#FFFFFF;}
	.st2{fill:#FFD100;}
</style>
<path class="st0" d="M201.2,601.6c0-5.1-1.1-8.9-3.2-11.3c-2.2-2.4-6.9-3.6-14.3-3.6h-15.7c-6.9,0-11.4,1.3-13.7,3.9
	c-2.3,2.6-3.4,6.2-3.4,11v21.3c0,4.8,1.1,8.4,3.4,11c2.3,2.6,6.8,3.9,13.7,3.9h15.7c7.4,0,12.1-1.2,14.1-3.5c2-2.4,3.1-6.1,3.3-11.1
	V601.6 M222.3,652c-4.6,4.6-13.2,6.9-25.6,6.9h-41c-12.4,0-21-2.2-25.8-6.7c-4.8-4.5-7.3-11.2-7.3-20.2v-39.7c0-9,2.4-15.7,7.3-20.2
	c4.8-4.5,13.4-6.7,25.8-6.7h41c12.5,0,21,2.3,25.6,6.9c4.6,4.6,6.9,11.3,6.9,20V632C229.2,640.8,226.9,647.4,222.3,652"/>
<path class="st0" d="M345.2,652c-4.6,4.6-13.1,6.9-25.6,6.9h-41c-12.4,0-21-2.2-25.8-6.7c-4.8-4.5-7.2-11.2-7.2-20.2v-39.7
	c0-9,2.4-15.7,7.2-20.2c4.8-4.5,13.4-6.7,25.8-6.7h41c12.5,0,21,2.3,25.6,6.9c4.6,4.6,6.9,11.3,6.9,20v9.2h-28
	c0-5.1-1.1-8.9-3.2-11.3c-2.1-2.4-6.9-3.6-14.2-3.6h-15.7c-6.8,0-11.4,1.3-13.7,3.9c-2.3,2.6-3.4,6.2-3.4,11v21.3
	c0,4.8,1.2,8.4,3.4,11c2.3,2.6,6.9,3.9,13.7,3.9h15.7c7.4,0,12.1-1.2,14.2-3.5c2.1-2.4,3.2-6.1,3.2-11.3h28v9.2
	C352.1,640.8,349.8,647.4,345.2,652"/>
<polyline class="st0" points="396.5,658.9 368.6,658.9 368.4,632 368.4,592.4 368.6,565.5 396.5,565.5 396.5,601.2 446.7,601.2 
	446.7,565.5 474.9,565.5 474.9,658.9 446.7,658.9 446.7,622.5 396.5,622.5 396.5,658.9 "/>
<path class="st0" d="M527.3,622.5h-8c0.1,4.9,1.3,8.7,3.6,11.3c2.3,2.6,6.9,3.9,13.7,3.9h61.2v21.3h-73.5c-12.4,0-21-2.2-25.8-6.7
	c-4.8-4.5-7.2-11.2-7.2-20.2v-39.7c0-9,2.4-15.7,7.2-20.2c4.8-4.5,13.4-6.7,25.8-6.7h73.5v21.3h-61.2c-6.9,0-11.4,1.3-13.7,3.9
	c-2.3,2.6-3.5,6.1-3.6,10.6h78.5v21.3H527.3"/>
<polyline class="st0" points="813.2,586.8 774.8,586.8 774.8,565.5 881.1,565.5 881.1,586.8 841.1,586.8 841.1,658.9 813.2,658.9 
	813.2,586.8 "/>
<path class="st0" d="M641,612.4c0-11.7,9.7-10.4,9.7-10.4h28.3v19.8h-28.5C650.6,621.7,641,622.1,641,612.4 M735.3,621.7h-28.5V602
	H735c0,0,9.7-1.3,9.7,10.4C744.8,622.1,735.3,621.7,735.3,621.7z M750.1,582.2h-43.3v-17.1h-27.6v17.1h-44.3c0,0-25.2,0.8-25.2,29.3
	c0,28.6,25.9,28.8,25.9,28.8h43.6v18.5h27.6v-18.5h42.6c0,0,25.9-0.2,25.9-28.8C775.3,583,750.1,582.2,750.1,582.2"/>
<path class="st1" d="M431.1,0v40.8h-43v40.9h-43.4v41.8h-43.4v139.1c0,0,76.4,69.8,87.3,79.8v148.1h187.5V343.2
	c10.8-10,86.7-80.8,86.7-80.8v-139h-43.1V82h-43.7V40.9h-43.7V0H431.1"/>
<rect x="419.8" y="274.8" class="st2" width="36.8" height="183.3"/>
<rect x="463.4" y="237" class="st2" width="36.8" height="221.1"/>
<rect x="507" y="274.8" class="st2" width="36.7" height="183.3"/>
<polyline class="st0" points="369.5,282 332.7,249.4 332.7,155.4 369.5,155.4 369.5,282 "/>
<polyline class="st0" points="413,322.9 376.3,286.8 376.3,113.9 413,113.9 413,322.9 "/>
<rect x="419.8" y="73.1" class="st0" width="36.8" height="196"/>
<rect x="463.4" y="32.2" class="st0" width="36.8" height="196.7"/>
<polyline class="st0" points="594.1,282 630.8,249.4 630.8,155.4 594.1,155.4 594.1,282 "/>
<polyline class="st0" points="550.5,322.9 587.3,286.8 587.3,113.9 550.5,113.9 550.5,322.9 "/>
<rect x="507" y="73.1" class="st0" width="36.7" height="196"/>
<path class="st0" d="M69.2,605.5H27.9v-18.7h41.3c5.2,0,9.3,4.2,9.3,9.4C78.5,601.3,74.4,605.5,69.2,605.5 M99.5,572.4
	c-4.6-4.6-13.1-6.9-25.6-6.9H0v93.5h27.9l0-32.2h46c12.5,0,21-2.3,25.6-6.9c4.6-4.6,6.9-11.3,6.9-20v-7.4
	C106.4,583.7,104.1,577.1,99.5,572.4"/>
<path class="st0" d="M972.2,628.3c0,5.2-4.2,9.4-9.4,9.4h-41.3V619h41.3C968,619,972.2,623.1,972.2,628.3 M1000,632.1v-7.4
	c0-8.7-2.3-15.4-6.9-20c-4.6-4.6-13.1-6.9-25.7-6.9h-45.9l0-32.2h-27.9v93.5h73.8c12.5,0,21-2.3,25.7-6.9
	C997.7,647.4,1000,640.7,1000,632.1"/>
</svg>
